<svg width="48" height="50" viewBox="0 0 48 50" fill="none" xmlns="http://www.w3.org/2000/svg">
<g clip-path="url(#clip0_1805_85836)">
<rect width="48" height="50" fill="url(#paint0_linear_1805_85836)"/>
<path d="M5.176 22V15.808H6.136V16.816H6.184C6.248 16.664 6.328 16.52 6.424 16.384C6.52 16.24 6.636 16.116 6.772 16.012C6.916 15.908 7.084 15.824 7.276 15.76C7.468 15.696 7.692 15.664 7.948 15.664C8.596 15.664 9.116 15.872 9.508 16.288C9.9 16.696 10.096 17.276 10.096 18.028V22H9.136V18.196C9.136 17.628 9.012 17.208 8.764 16.936C8.516 16.656 8.152 16.516 7.672 16.516C7.48 16.516 7.292 16.54 7.108 16.588C6.924 16.636 6.76 16.708 6.616 16.804C6.472 16.9 6.356 17.024 6.268 17.176C6.18 17.328 6.136 17.504 6.136 17.704V22H5.176ZM14.7953 22.144C14.3633 22.144 13.9713 22.068 13.6193 21.916C13.2753 21.764 12.9793 21.548 12.7313 21.268C12.4913 20.98 12.3073 20.64 12.1793 20.248C12.0513 19.848 11.9873 19.4 11.9873 18.904C11.9873 18.416 12.0513 17.972 12.1793 17.572C12.3073 17.172 12.4913 16.832 12.7313 16.552C12.9793 16.264 13.2753 16.044 13.6193 15.892C13.9713 15.74 14.3633 15.664 14.7953 15.664C15.2273 15.664 15.6153 15.74 15.9593 15.892C16.3113 16.044 16.6073 16.264 16.8473 16.552C17.0953 16.832 17.2833 17.172 17.4113 17.572C17.5393 17.972 17.6033 18.416 17.6033 18.904C17.6033 19.4 17.5393 19.848 17.4113 20.248C17.2833 20.64 17.0953 20.98 16.8473 21.268C16.6073 21.548 16.3113 21.764 15.9593 21.916C15.6153 22.068 15.2273 22.144 14.7953 22.144ZM14.7953 21.316C15.3313 21.316 15.7633 21.156 16.0913 20.836C16.4193 20.516 16.5833 20.02 16.5833 19.348V18.46C16.5833 17.788 16.4193 17.292 16.0913 16.972C15.7633 16.652 15.3313 16.492 14.7953 16.492C14.2593 16.492 13.8273 16.652 13.4993 16.972C13.1713 17.292 13.0073 17.788 13.0073 18.46V19.348C13.0073 20.02 13.1713 20.516 13.4993 20.836C13.8273 21.156 14.2593 21.316 14.7953 21.316ZM22.2906 22C21.8186 22 21.4706 21.868 21.2466 21.604C21.0306 21.34 20.9226 21 20.9226 20.584V16.624H18.8586V15.808H20.3946C20.6026 15.808 20.7466 15.768 20.8266 15.688C20.9146 15.6 20.9586 15.452 20.9586 15.244V13.624H21.8826V15.808H24.7026V16.624H21.8826V21.184H24.7026V22H22.2906ZM29.2939 22.144C28.8459 22.144 28.4419 22.068 28.0819 21.916C27.7299 21.764 27.4259 21.548 27.1699 21.268C26.9219 20.98 26.7299 20.64 26.5939 20.248C26.4579 19.848 26.3899 19.404 26.3899 18.916C26.3899 18.42 26.4579 17.972 26.5939 17.572C26.7379 17.172 26.9339 16.832 27.1819 16.552C27.4299 16.264 27.7259 16.044 28.0699 15.892C28.4219 15.74 28.8099 15.664 29.2339 15.664C29.6499 15.664 30.0259 15.74 30.3619 15.892C30.7059 16.044 30.9979 16.256 31.2379 16.528C31.4779 16.792 31.6619 17.108 31.7899 17.476C31.9179 17.844 31.9819 18.248 31.9819 18.688V19.144H27.3979V19.432C27.3979 19.704 27.4419 19.956 27.5299 20.188C27.6179 20.42 27.7419 20.62 27.9019 20.788C28.0699 20.956 28.2699 21.088 28.5019 21.184C28.7419 21.272 29.0059 21.316 29.2939 21.316C29.7099 21.316 30.0699 21.22 30.3739 21.028C30.6779 20.836 30.9099 20.572 31.0699 20.236L31.7779 20.716C31.5939 21.132 31.2859 21.476 30.8539 21.748C30.4299 22.012 29.9099 22.144 29.2939 22.144ZM29.2339 16.456C28.9699 16.456 28.7259 16.504 28.5019 16.6C28.2779 16.696 28.0819 16.828 27.9139 16.996C27.7539 17.164 27.6259 17.364 27.5299 17.596C27.4419 17.82 27.3979 18.068 27.3979 18.34V18.424H30.9499V18.292C30.9499 18.02 30.9059 17.772 30.8179 17.548C30.7379 17.324 30.6219 17.132 30.4699 16.972C30.3259 16.804 30.1459 16.676 29.9299 16.588C29.7219 16.5 29.4899 16.456 29.2339 16.456Z" fill="white"/>
<path d="M4.36 31.808H5.212L5.92 37.16H6.028L7.084 31.808H8.14L9.196 37.16H9.304L10.012 31.808H10.84L9.892 38H8.644L7.66 32.816H7.564L6.556 38H5.308L4.36 31.808ZM15.1793 30.44C14.8993 30.44 14.7033 30.384 14.5913 30.272C14.4793 30.152 14.4233 30.004 14.4233 29.828V29.636C14.4233 29.46 14.4793 29.316 14.5913 29.204C14.7033 29.084 14.8993 29.024 15.1793 29.024C15.4593 29.024 15.6553 29.084 15.7673 29.204C15.8793 29.316 15.9353 29.46 15.9353 29.636V29.828C15.9353 30.004 15.8793 30.152 15.7673 30.272C15.6553 30.384 15.4593 30.44 15.1793 30.44ZM12.4673 37.184H14.6993V32.624H12.4673V31.808H15.6593V37.184H17.7473V38H12.4673V37.184ZM22.0626 38.144C21.4146 38.144 20.8546 38.036 20.3826 37.82C19.9186 37.596 19.5226 37.3 19.1946 36.932L19.8426 36.368C20.1386 36.68 20.4626 36.92 20.8146 37.088C21.1666 37.256 21.5906 37.34 22.0866 37.34C22.5666 37.34 22.9586 37.256 23.2626 37.088C23.5746 36.912 23.7306 36.64 23.7306 36.272C23.7306 36.112 23.6986 35.98 23.6346 35.876C23.5786 35.764 23.4986 35.676 23.3946 35.612C23.2906 35.548 23.1746 35.5 23.0466 35.468C22.9186 35.428 22.7826 35.396 22.6386 35.372L21.6666 35.228C21.4506 35.196 21.2146 35.152 20.9586 35.096C20.7106 35.04 20.4826 34.952 20.2746 34.832C20.0666 34.704 19.8906 34.536 19.7466 34.328C19.6106 34.12 19.5426 33.848 19.5426 33.512C19.5426 33.2 19.6026 32.932 19.7226 32.708C19.8506 32.476 20.0266 32.284 20.2506 32.132C20.4746 31.972 20.7386 31.856 21.0426 31.784C21.3466 31.704 21.6786 31.664 22.0386 31.664C22.5986 31.664 23.0826 31.752 23.4906 31.928C23.9066 32.104 24.2626 32.348 24.5586 32.66L23.9346 33.248C23.8626 33.16 23.7706 33.072 23.6586 32.984C23.5546 32.888 23.4226 32.804 23.2626 32.732C23.1106 32.652 22.9306 32.588 22.7226 32.54C22.5146 32.492 22.2746 32.468 22.0026 32.468C21.5146 32.468 21.1386 32.552 20.8746 32.72C20.6186 32.888 20.4906 33.132 20.4906 33.452C20.4906 33.612 20.5186 33.748 20.5746 33.86C20.6386 33.964 20.7226 34.048 20.8266 34.112C20.9306 34.176 21.0466 34.228 21.1746 34.268C21.3106 34.3 21.4466 34.328 21.5826 34.352L22.5546 34.496C22.7786 34.528 23.0146 34.572 23.2626 34.628C23.5106 34.684 23.7386 34.776 23.9466 34.904C24.1546 35.024 24.3266 35.188 24.4626 35.396C24.6066 35.604 24.6786 35.876 24.6786 36.212C24.6786 36.828 24.4386 37.304 23.9586 37.64C23.4866 37.976 22.8546 38.144 22.0626 38.144ZM29.2939 38.144C28.8459 38.144 28.4419 38.068 28.0819 37.916C27.7299 37.764 27.4259 37.548 27.1699 37.268C26.9219 36.98 26.7299 36.64 26.5939 36.248C26.4579 35.848 26.3899 35.404 26.3899 34.916C26.3899 34.42 26.4579 33.972 26.5939 33.572C26.7379 33.172 26.9339 32.832 27.1819 32.552C27.4299 32.264 27.7259 32.044 28.0699 31.892C28.4219 31.74 28.8099 31.664 29.2339 31.664C29.6499 31.664 30.0259 31.74 30.3619 31.892C30.7059 32.044 30.9979 32.256 31.2379 32.528C31.4779 32.792 31.6619 33.108 31.7899 33.476C31.9179 33.844 31.9819 34.248 31.9819 34.688V35.144H27.3979V35.432C27.3979 35.704 27.4419 35.956 27.5299 36.188C27.6179 36.42 27.7419 36.62 27.9019 36.788C28.0699 36.956 28.2699 37.088 28.5019 37.184C28.7419 37.272 29.0059 37.316 29.2939 37.316C29.7099 37.316 30.0699 37.22 30.3739 37.028C30.6779 36.836 30.9099 36.572 31.0699 36.236L31.7779 36.716C31.5939 37.132 31.2859 37.476 30.8539 37.748C30.4299 38.012 29.9099 38.144 29.2939 38.144ZM29.2339 32.456C28.9699 32.456 28.7259 32.504 28.5019 32.6C28.2779 32.696 28.0819 32.828 27.9139 32.996C27.7539 33.164 27.6259 33.364 27.5299 33.596C27.4419 33.82 27.3979 34.068 27.3979 34.34V34.424H30.9499V34.292C30.9499 34.02 30.9059 33.772 30.8179 33.548C30.7379 33.324 30.6219 33.132 30.4699 32.972C30.3259 32.804 30.1459 32.676 29.9299 32.588C29.7219 32.5 29.4899 32.456 29.2339 32.456Z" fill="white"/>
<g filter="url(#filter0_d_1805_85836)">
<rect x="40" width="8" height="50" fill="#D9D9D9"/>
</g>
</g>
<defs>
<filter id="filter0_d_1805_85836" x="40" y="-8" width="49" height="70" filterUnits="userSpaceOnUse" color-interpolation-filters="sRGB">
<feFlood flood-opacity="0" result="BackgroundImageFix"/>
<feColorMatrix in="SourceAlpha" type="matrix" values="0 0 0 0 0 0 0 0 0 0 0 0 0 0 0 0 0 0 127 0" result="hardAlpha"/>
<feMorphology radius="4" operator="dilate" in="SourceAlpha" result="effect1_dropShadow_1805_85836"/>
<feOffset dx="31" dy="2"/>
<feGaussianBlur stdDeviation="3"/>
<feComposite in2="hardAlpha" operator="out"/>
<feColorMatrix type="matrix" values="0 0 0 0 0 0 0 0 0 0 0 0 0 0 0 0 0 0 0.25 0"/>
<feBlend mode="normal" in2="BackgroundImageFix" result="effect1_dropShadow_1805_85836"/>
<feBlend mode="normal" in="SourceGraphic" in2="effect1_dropShadow_1805_85836" result="shape"/>
</filter>
<linearGradient id="paint0_linear_1805_85836" x1="48" y1="50" x2="-1.95837" y2="2.03997" gradientUnits="userSpaceOnUse">
<stop stop-color="#802DFD"/>
<stop offset="1" stop-color="#363352"/>
</linearGradient>
<clipPath id="clip0_1805_85836">
<rect width="48" height="50" fill="white"/>
</clipPath>
</defs>
</svg>
